<?xml version="1.0" encoding="UTF-8" standalone="no"?>
<!DOCTYPE svg  PUBLIC '-//W3C//DTD SVG 1.1//EN'  'http://www.w3.org/Graphics/SVG/1.1/DTD/svg11.dtd'>
<svg xmlns="http://www.w3.org/2000/svg">
<defs>
<font id="Univers-CondensedOblique" horiz-adv-x="500">
<font-face slope="-12" underline-position="-50" font-weight="400" descent="-200" panose-1="2 11 5 6 0 0 0 0 0 0" units-per-em="1000" unicode-range="U+0020-2212" font-stretch="condensed" bbox="-35 -250 1000 989" x-height="505" underline-thickness="50" font-family="Univers 57 Condensed" ascent="800" font-style="oblique" cap-height="722"/>
<missing-glyph horiz-adv-x="1000"/>
<glyph glyph-name=".notdef" horiz-adv-x="1000"/>
<glyph glyph-name=".null" horiz-adv-x="0"/>
<glyph glyph-name="nonmarkingreturn" horiz-adv-x="333"/>
<glyph glyph-name="space" horiz-adv-x="222" unicode=" "/>
<glyph glyph-name="space" horiz-adv-x="222" unicode=" "/>
<glyph glyph-name="exclam" horiz-adv-x="333" unicode="!" d="M214 104v-104h-94v104h94zM201 167h-71l-18 555h109z"/>
<glyph glyph-name="quotedbl" horiz-adv-x="250" unicode='&quot;' d="M155 515v207h60v-207h-60zM35 515v207h60v-207h-60z"/>
<glyph glyph-name="numbersign" horiz-adv-x="444" unicode="#" d="M165 290h80l35 114h-81zM23 0l73 234h-99l17 56h99l35 114h-101l17 56h100l73 234h51l-73 -234h82l71 234h52l-72 -234h102l-17 -56h-102l-35 -114h103l-17 -56h-103l-72 -234h-51l72 234h-80l-74 -234h-51z"/>
<glyph glyph-name="dollar" horiz-adv-x="444" unicode="$" d="M243 -15v-59h-43v59q-51 0 -88.5 16t-57.5 38.5t-32 53t-15 52.5t-3 44q0 7 0.5 14t0.5 8h94q0 -60 24.5 -101t76.5 -45v252q-42 21 -65.5 34.5t-54 38.5t-44.5 56t-14 71q0 82 51 135t127 53v59h43v-59q98 0 147 -52.5t49 -151.5h-101q1 58 -20.5 89.5t-74.5 34.5v-231 q91 -44 121 -66q76 -58 76 -151q0 -95 -60.5 -143.5t-136.5 -48.5zM200 416v209q-38 -5 -61 -31.5t-23 -66.5q0 -67 84 -111zM243 295v-230q46 5 74.5 34t28.5 75q0 40 -26.5 67t-76.5 54z"/>
<glyph glyph-name="percent" horiz-adv-x="778" unicode="%" d="M591 758l-343 -794h-63l341 794h65zM579 311q-40 0 -49 -28t-9 -107q0 -35 0.5 -50t3 -36t9 -29t17.5 -14t28 -6q40 0 49 28t9 107q0 35 -0.5 50t-3 36t-9 29t-17.5 14t-28 6zM579 367q35 0 59.5 -11.5t38 -28.5t20.5 -45t8.5 -51t1.5 -57q0 -35 -1.5 -57.5t-8.5 -50 t-20.5 -43.5t-38 -27t-59.5 -11t-59.5 11t-38 27t-20.5 43.5t-8.5 50t-1.5 57.5q0 34 1.5 57t8.5 51t20.5 45t38 28.5t59.5 11.5zM198 681q-40 0 -49 -28t-9 -107q0 -35 0.5 -50t3 -36t9 -29t17.5 -14t28 -6q40 0 49 28t9 107q0 35 -0.5 50t-3 36t-9 29t-17.5 14t-28 6z M198 737q35 0 59.5 -11.5t38 -28.5t20.5 -45t8.5 -51t1.5 -57q0 -35 -1.5 -57.5t-8.5 -50t-20.5 -43.5t-38 -27t-59.5 -11t-59.5 11t-38 27t-20.5 43.5t-8.5 50t-1.5 57.5q0 34 1.5 57t8.5 51t20.5 45t38 28.5t59.5 11.5z"/>
<glyph glyph-name="ampersand" horiz-adv-x="667" unicode="&amp;" d="M550 0l-58 74q-40 -49 -87.5 -69t-113.5 -20q-103 0 -170 53.5t-67 153.5q0 43 10.5 75.5t36.5 59t48 42.5t65 43q-95 109 -95 182t51 108t127 35q74 0 121.5 -36.5t47.5 -109.5q0 -90 -121 -192l141 -179q14 47 14 205h82q0 -195 -44 -270l116 -155h-104zM292 456 q80 71 80 130q0 38 -21 59.5t-58 21.5q-35 0 -57.5 -22.5t-22.5 -58.5q0 -22 12.5 -44t36.5 -49.5t30 -36.5zM443 134l-178 225q-30 -21 -46 -33.5t-35 -33t-27.5 -44.5t-8.5 -54q0 -58 41.5 -95t106.5 -37q97 0 147 72z"/>
<glyph glyph-name="quotesingle" horiz-adv-x="250" unicode="&apos;" d="M95 515v207h60v-207h-60z"/>
<glyph glyph-name="parenleft" horiz-adv-x="278" unicode="(" d="M207 -118h-58q-6 18 -26.5 81.5t-28.5 92t-21 79.5t-18 93.5t-5 85.5q0 44 5 87.5t18.5 96.5t21 80.5t29 94t26.5 83.5h61q-67 -264 -67 -446q0 -161 63 -428z"/>
<glyph glyph-name="parenright" horiz-adv-x="278" unicode=")" d="M129 -118h-58q63 267 63 428q0 182 -67 446h61q5 -17 26.5 -83.5t29 -94t21 -80.5t18.5 -96.5t5 -87.5q0 -43 -5 -85.5t-18 -93.5t-21 -79.5t-28.5 -92t-26.5 -81.5z"/>
<glyph glyph-name="asterisk" horiz-adv-x="444" unicode="*" d="M412 522l-156 15l91 -130l-58 -32l-67 144l-67 -144l-58 32l91 130l-156 -15v66l156 -12l-90 127l59 34l65 -142l65 142l59 -34l-90 -127l156 12v-66z"/>
<glyph glyph-name="plus" d="M219 284v221h62v-221h176v-62h-176v-222h-62v222h-176v62h176z" unicode="+"/>
<glyph glyph-name="comma" horiz-adv-x="222" unicode="," d="M34 -127l52 231h103l-91 -231h-64z"/>
<glyph glyph-name="hyphen" horiz-adv-x="333" unicode="-" d="M56 234v77h220v-77h-220z"/>
<glyph glyph-name="hyphen" horiz-adv-x="333" unicode="­" d="M56 234v77h220v-77h-220z"/>
<glyph glyph-name="period" horiz-adv-x="222" unicode="." d="M158 104v-104h-94v104h94z"/>
<glyph glyph-name="slash" horiz-adv-x="278" unicode="/" d="M278 722l-235 -818h-67l235 818h67z"/>
<glyph glyph-name="zero" horiz-adv-x="444" unicode="0" d="M222 628q-17 0 -31 -4.5t-23.5 -17t-16.5 -24t-11.5 -36t-7 -42.5t-4 -52.5t-1.5 -58v-67.5v-43q0 -50 2.5 -81.5t11 -67.5t29 -54t52.5 -18t52.5 18t29 54t11 67.5t2.5 81.5v43v67.5t-1.5 58t-4 52.5t-7 42.5t-11.5 36t-16.5 24t-23.5 17t-31 4.5zM222 705 q39 0 68.5 -10.5t49 -25.5t33 -43.5t20.5 -52.5t11 -66t4.5 -69.5t0.5 -76.5v-17v-6q0 -39 -0.5 -60t-2 -56.5t-4.5 -55.5t-9.5 -48.5t-16 -45t-23.5 -35.5t-32.5 -28.5t-43.5 -16.5t-55 -7t-55 7t-43.5 16.5t-32.5 28.5t-23.5 35.5t-16 45t-9.5 48.5t-4.5 55.5t-2 56.5 t-0.5 60v6v17q0 49 0.5 76.5t4.5 69.5t11 66t20.5 52.5t33 43.5t49 25.5t68.5 10.5z"/>
<glyph glyph-name="one" horiz-adv-x="444" unicode="1" d="M289 694v-694h-92v593l-104 -70v88q34 15 117 83h79z"/>
<glyph glyph-name="two" horiz-adv-x="444" unicode="2" d="M416 0h-373v80q38 54 88.5 122.5t71 97t47 68t35 61.5t15 49.5t6.5 57.5q0 43 -21.5 67.5t-64.5 24.5q-81 0 -81 -107v-6h-94q0 3 -0.5 10t-0.5 11q0 79 43.5 124t125.5 45q94 0 139.5 -44.5t45.5 -137.5q0 -46 -8 -81t-33 -76.5t-46.5 -70t-76 -96t-93.5 -119.5h275v-80 z"/>
<glyph glyph-name="three" horiz-adv-x="444" unicode="3" d="M169 323v81q7 -1 21 -1q56 0 88.5 28.5t32.5 87.5q0 50 -23.5 79.5t-72.5 29.5q-87 0 -87 -107v-6h-92q0 3 -0.5 9.5t-0.5 9.5q0 82 45 126.5t135 44.5t139 -45.5t49 -134.5q0 -37 -11.5 -66t-24.5 -44.5t-37 -27.5t-33.5 -15t-30.5 -8v-2q79 -11 111.5 -53.5 t32.5 -123.5q0 -200 -206 -200q-179 0 -179 184v22h92q1 -62 19.5 -95.5t75.5 -33.5q106 0 106 125q0 81 -32.5 108.5t-116.5 27.5z"/>
<glyph glyph-name="four" horiz-adv-x="444" unicode="4" d="M257 169h-232v80l196 445h122v-445h82v-80h-82v-169h-86v169zM105 249h152v361h-2z"/>
<glyph glyph-name="five" horiz-adv-x="444" unicode="5" d="M59 694h324v-80h-232v-202l2 -2q11 22 42.5 37t67.5 15q74 0 109.5 -57t35.5 -177q0 -40 -2.5 -69t-13.5 -64t-30.5 -57t-55.5 -37.5t-86 -15.5q-99 0 -135 45.5t-36 126.5h92q0 -45 19.5 -75t62.5 -30q31 0 51 13.5t28.5 38.5t11 47t2.5 54q0 37 -1 58.5t-5.5 48t-14 40 t-26.5 23.5t-42 10q-36 0 -57.5 -22t-27.5 -59h-83v390z"/>
<glyph glyph-name="six" horiz-adv-x="444" unicode="6" d="M223 -15q-30 0 -55 7t-43.5 16.5t-32.5 28.5t-23.5 35.5t-16 45t-9.5 48.5t-4.5 55.5t-2 56.5t-0.5 60v6v17q0 49 0.5 76.5t4.5 69.5t11 66t20.5 52.5t33 43.5t49 25.5t68.5 10.5q77 0 124.5 -43.5t47.5 -117.5v-8h-92q0 40 -21.5 71t-59.5 31q-55 0 -74.5 -54.5 t-19.5 -196.5h2q37 65 113 65q165 0 165 -233q0 -102 -45 -168t-140 -66zM130 225q0 -163 98 -163q51 0 69.5 46t18.5 127q0 140 -94 140q-92 0 -92 -150z"/>
<glyph glyph-name="seven" horiz-adv-x="444" unicode="7" d="M30 614v80h359v-80l-185 -614h-104l194 614h-264z"/>
<glyph glyph-name="eight" horiz-adv-x="444" unicode="8" d="M222 408q46 0 66 38.5t20 87.5q0 43 -22 73.5t-64 30.5t-64 -30.5t-22 -73.5q0 -49 20 -87.5t66 -38.5zM279 368v-1q128 -13 128 -180q0 -95 -47.5 -148.5t-137.5 -53.5t-137.5 53.5t-47.5 148.5q0 167 128 180v1q-59 12 -90 56.5t-31 106.5q0 81 48 127.5t130 46.5 t130 -46.5t48 -127.5q0 -62 -31 -106.5t-90 -56.5zM222 62q48 0 70.5 36.5t22.5 87.5q0 22 -1.5 39t-7 37.5t-15 34t-27 22.5t-42.5 9t-42.5 -9t-27 -22.5t-15 -34t-7 -37.5t-1.5 -39q0 -51 22.5 -87.5t70.5 -36.5z"/>
<glyph glyph-name="nine" horiz-adv-x="444" unicode="9" d="M221 705q39 0 68.5 -10.5t49 -25.5t33 -43.5t20.5 -52.5t11 -66t4.5 -69.5t0.5 -76.5v-17v-6q0 -39 -0.5 -60t-2 -56.5t-4.5 -55.5t-9.5 -48.5t-16 -45t-23.5 -35.5t-32.5 -28.5t-43.5 -16.5t-55 -7q-78 0 -125 49.5t-46 131.5h92q0 -44 19 -74t60 -30q26 0 44 12.5 t28 32t15 58t6.5 75t1.5 98.5h-2q-30 -65 -119 -65q-25 0 -49 8t-50.5 29.5t-43 68t-16.5 113.5q0 109 53.5 161t131.5 52zM221 638q-93 0 -93 -144t93 -144t93 144t-93 144z"/>
<glyph glyph-name="colon" horiz-adv-x="222" unicode=":" d="M158 104v-104h-94v104h94zM158 505v-104h-94v104h94z"/>
<glyph glyph-name="semicolon" horiz-adv-x="222" unicode=";" d="M158 505v-104h-94v104h94zM34 -127l52 231h103l-91 -231h-64z"/>
<glyph glyph-name="less" d="M120 253l339 -193v-73l-417 234v64l417 230v-73z" unicode="&lt;"/>
<glyph glyph-name="equal" d="M457 187v-62h-414v62h414zM457 384v-62h-414v62h414z" unicode="="/>
<glyph glyph-name="greater" d="M41 60l339 193l-339 189v73l417 -230v-64l-417 -234v73z" unicode="&gt;"/>
<glyph glyph-name="question" horiz-adv-x="444" unicode="?" d="M266 104v-104h-94v104h94zM260 183h-82v114q0 29 19 62t41.5 59.5t41.5 68t19 85.5q0 38 -19 68t-56 30q-74 0 -74 -126v-13h-94v18q0 188 174 188q76 0 119.5 -45t43.5 -122q0 -56 -21 -105t-45.5 -76t-45.5 -58t-21 -55v-93z"/>
<glyph glyph-name="at" horiz-adv-x="788" unicode="@" d="M544 529l14 47h69l-103 -305q-13 -36 -13 -52q0 -26 30 -26q55 0 111 64.5t56 172.5q0 23 -5 49.5t-24 64.5t-50 66.5t-90.5 49.5t-137.5 21q-133 0 -227 -93.5t-94 -226.5t93.5 -226.5t227.5 -93.5q92 0 165.5 34t118.5 99h60q-48 -88 -140 -138.5t-204 -50.5 q-156 0 -266.5 110t-110.5 267q0 156 110.5 265.5t266.5 109.5q95 0 167 -29t108 -67t57.5 -86.5t26 -76.5t4.5 -48q0 -80 -26 -140.5t-65 -91.5t-76.5 -46t-69.5 -15q-29 0 -54 13.5t-33 39.5q-49 -51 -120 -51q-63 0 -101.5 44t-38.5 107q0 69 30.5 138.5t89.5 118.5 t130 49q37 0 68 -17.5t46 -49.5zM431 536q-73 0 -123.5 -81t-50.5 -160q0 -39 21 -67.5t57 -28.5q41 0 75 34.5t53 82t29 87.5t10 60q0 30 -20 51.5t-51 21.5z"/>
<glyph glyph-name="A" horiz-adv-x="611" unicode="A" d="M416 252l-116 385h-2l-113 -385h231zM15 0l229 722h117l235 -722h-103l-52 172h-279l-54 -172h-93z"/>
<glyph glyph-name="B" horiz-adv-x="611" unicode="B" d="M322 0h-232v722h235q68 0 102.5 -19t58.5 -55q29 -45 29 -96q0 -71 -28.5 -113.5t-95.5 -57.5v-5q148 -17 148 -173q0 -203 -217 -203zM182 642v-224h134q53 1 80 31t27 84q0 48 -28 78.5t-83 30.5h-130zM182 338v-258h130q67 0 100 38t33 85q0 42 -12 69.5t-36 41.5 t-51 19t-66 5h-98z"/>
<glyph glyph-name="C" horiz-adv-x="556" unicode="C" d="M494 523h-95v13q0 66 -21 92q-13 15 -37.5 23t-43.5 8q-34 0 -60.5 -12.5t-36.5 -24t-12 -19.5q0 -1 -2.5 -5.5t-4.5 -9.5t-4.5 -16.5t-4.5 -26t-3.5 -39t-1.5 -53.5v-193q0 -64 9.5 -105.5t29 -60.5t40 -25.5t50.5 -6.5q15 0 30 4.5t36 17.5t34.5 46.5t13.5 82.5h95v-8 q0 -52 -11 -92t-32 -63t-41 -37.5t-47.5 -19.5t-41 -6.5t-31.5 -1.5q-25 0 -41.5 1t-42.5 7t-44 16.5t-38.5 31.5t-32.5 50.5t-20.5 75.5t-8.5 104v204q0 145 59 203.5t173 58.5q98 0 144 -46.5t46 -139.5q0 -18 -1 -28z"/>
<glyph glyph-name="D" horiz-adv-x="611" unicode="D" d="M83 0v722h222q143 0 194 -110q32 -67 32 -228q0 -221 -44 -291q-59 -93 -238 -93h-166zM175 642v-562h87q98 0 136.5 46t38.5 170v146q0 108 -34 154t-107 46h-121z"/>
<glyph glyph-name="E" d="M459 0h-378v722h372v-80h-280v-232h260v-80h-260v-250h286v-80z" unicode="E"/>
<glyph glyph-name="F" horiz-adv-x="444" unicode="F" d="M166 0h-92v722h358v-80h-266v-232h252v-80h-252v-330z"/>
<glyph glyph-name="G" horiz-adv-x="611" unicode="G" d="M523 529h-96q0 66 -30 98.5t-98 32.5q-13 0 -25.5 -1.5t-33.5 -10t-36 -24t-26.5 -46.5t-11.5 -74v-244q0 -113 32 -155.5t101 -42.5q86 0 129 32v216h-133v80h225v-351q-100 -54 -221 -54q-117 0 -172 65.5t-55 213.5v237q0 111 57.5 173.5t169.5 62.5 q115 0 169.5 -44.5t54.5 -146.5v-17z"/>
<glyph glyph-name="H" horiz-adv-x="611" unicode="H" d="M179 0h-92v722h92v-312h253v312h92v-722h-92v330h-253v-330z"/>
<glyph glyph-name="I" horiz-adv-x="278" unicode="I" d="M185 722v-722h-92v722h92z"/>
<glyph glyph-name="J" d="M30 224h96q0 -4 0.5 -25t1 -28t2.5 -26t5.5 -27t10 -21.5t15.5 -19t22.5 -10.5t30.5 -5q28 0 48 10t31 24.5t16.5 39.5t7 45.5t1.5 52.5v488h92v-543q0 -20 -1.5 -36t-12 -48t-29.5 -53.5t-59.5 -39t-96.5 -17.5q-40 0 -84.5 16.5t-67.5 54.5q-29 48 -29 168z" unicode="J"/>
<glyph glyph-name="K" horiz-adv-x="556" unicode="K" d="M173 0h-92v722h92v-317h3l252 317h104l-262 -326l277 -396h-118l-253 377h-3v-377z"/>
<glyph glyph-name="L" horiz-adv-x="444" unicode="L" d="M438 0h-357v722h92v-642h265v-80z"/>
<glyph glyph-name="M" horiz-adv-x="833" unicode="M" d="M168 642v-642h-86v722h149l182 -606h2l184 606h152v-722h-92v642h-2l-202 -642h-87l-198 642h-2z"/>
<glyph glyph-name="N" horiz-adv-x="667" unicode="N" d="M499 722h82v-722h-126l-285 626h-2v-626h-82v722h130l281 -618h2v618z"/>
<glyph glyph-name="O" horiz-adv-x="611" unicode="O" d="M305 62q69 0 101 42.5t32 155.5v244q0 43 -11.5 74t-26.5 46.5t-36 24t-33.5 10t-25.5 1.5t-25.5 -1.5t-33.5 -10t-36 -24t-26.5 -46.5t-11.5 -74v-244q0 -113 32 -155.5t101 -42.5zM305 -15q-117 0 -172 65.5t-55 213.5v237q0 111 57.5 173.5t169.5 62.5t169.5 -62.5 t57.5 -173.5v-237q0 -148 -55 -213.5t-172 -65.5z"/>
<glyph glyph-name="P" horiz-adv-x="556" unicode="P" d="M185 0h-92v722h214q201 0 201 -206q0 -58 -20.5 -99.5t-53.5 -61.5t-64.5 -28.5t-63.5 -8.5h-121v-318zM185 642v-244h101q19 0 37 4t40.5 15t36.5 37.5t14 66.5q0 38 -12.5 64.5t-31.5 37.5t-33 15t-25 4h-127z"/>
<glyph glyph-name="Q" horiz-adv-x="611" unicode="Q" d="M72 264v237q0 111 57.5 173.5t169.5 62.5t169.5 -62.5t57.5 -173.5v-237q0 -50 -17.5 -118t-45.5 -80l2 -2q52 16 63 16h72v-80h-300q-27 0 -44 1t-43.5 6.5t-44 15t-37.5 29t-31.5 47t-19.5 69.5t-8 96zM300 74q77 0 104.5 44.5t27.5 141.5v244q0 43 -11.5 74 t-26.5 46.5t-36 24t-33.5 10t-25.5 1.5t-25.5 -1.5t-33.5 -10t-36 -24t-26.5 -46.5t-11.5 -74v-244q0 -96 28.5 -141t105.5 -45z"/>
<glyph glyph-name="R" horiz-adv-x="556" unicode="R" d="M279 332h-108v-332h-92v722h249q89 0 131 -52t42 -128q0 -65 -34.5 -109.5t-97.5 -55.5v-2q65 -10 89.5 -45.5t28.5 -140.5q1 -33 8.5 -96t16.5 -93h-96q-12 23 -16.5 57t-7 95t-4.5 88q-7 92 -109 92zM171 642v-230h138q47 0 72.5 34.5t25.5 85.5q0 45 -24 77.5 t-73 32.5h-139z"/>
<glyph glyph-name="S" horiz-adv-x="556" unicode="S" d="M61 215h91v-21q0 -68 35 -98.5t86 -30.5q129 0 129 117q0 44 -33.5 77t-81 57t-95 50t-81 70.5t-33.5 104.5q0 93 59 144.5t153 51.5q200 0 200 -195v-16h-96q1 64 -24 97.5t-87 33.5q-47 0 -79 -26t-32 -80q0 -43 33.5 -76t81 -56.5t95 -50t81 -73t33.5 -109.5 q0 -106 -62.5 -153.5t-161.5 -47.5h-4q-207 0 -207 210v20z"/>
<glyph glyph-name="T" d="M14 722h472v-80h-190v-642h-92v642h-190v80z" unicode="T"/>
<glyph glyph-name="U" horiz-adv-x="611" unicode="U" d="M78 264v458h92v-462q0 -113 32.5 -155.5t102.5 -42.5t102.5 42.5t32.5 155.5v462h92v-458q0 -148 -55 -213.5t-172 -65.5t-172 65.5t-55 213.5z"/>
<glyph glyph-name="V" horiz-adv-x="556" unicode="V" d="M543 722l-211 -722h-110l-209 722h100l165 -635h2l169 635h94z"/>
<glyph glyph-name="W" horiz-adv-x="889" unicode="W" d="M182 0l-176 722h98l136 -626h2l145 626h119l131 -626h2l147 626h96l-191 -722h-112l-137 626h-2l-146 -626h-112z"/>
<glyph glyph-name="X" horiz-adv-x="556" unicode="X" d="M328 374l216 -374h-111l-168 309l-159 -309h-100l208 374l-197 348h106l148 -280l150 280h101z"/>
<glyph glyph-name="Y" d="M252 373l146 349h93l-197 -447v-275h-92v275l-194 447h103z" unicode="Y"/>
<glyph glyph-name="Z" d="M467 722v-92l-358 -550h366v-80h-451v104l350 536v2h-338v80h431z" unicode="Z"/>
<glyph glyph-name="bracketleft" horiz-adv-x="278" unicode="[" d="M239 -118h-169v874h166v-56h-84v-762h87v-56z"/>
<glyph glyph-name="backslash" horiz-adv-x="278" unicode="\" d="M211 -15l-212 737h67l212 -737h-67z"/>
<glyph glyph-name="bracketright" horiz-adv-x="278" unicode="]" d="M208 -118h-169v56h87v762h-84v56h166v-874z"/>
<glyph glyph-name="asciicircum" d="M217 694h60l156 -417h-75l-112 318h-2l-110 -318h-68z" unicode="^"/>
<glyph glyph-name="underscore" d="M500 -125h-500v50h500v-50z" unicode="_"/>
<glyph glyph-name="grave" horiz-adv-x="278" unicode="`" d="M20 722h109l89 -141h-67z"/>
<glyph glyph-name="a" d="M332 0v73h-2q-36 -83 -127 -83q-76 0 -107 43.5t-31 122.5q0 50 20 83t56.5 48t72 20.5t83.5 5.5h33q0 4 0.5 13.5t0.5 14.5q0 53 -17 82.5t-69 29.5q-38 0 -59 -21t-21 -57q0 -2 0.5 -6t0.5 -6h-89q3 82 45.5 117t125.5 35q91 0 127.5 -40.5t36.5 -111.5v-243 q0 -55 10 -120h-90zM330 251q-89 -1 -118 -10q-65 -20 -65 -91q0 -40 20 -66.5t59 -26.5q105 0 105 166q0 4 -0.5 13.5t-0.5 14.5z" unicode="a"/>
<glyph glyph-name="b" d="M161 60v-60h-82v722h82v-268h3q43 61 111 61q34 0 60.5 -9t44 -22t29.5 -36.5t18.5 -43.5t10 -51.5t4 -53t0.5 -55.5q0 -80 -13.5 -133t-38.5 -78t-50.5 -34t-60.5 -9q-74 0 -116 70h-2zM161 273v-39q0 -36 2.5 -61.5t11 -55t28 -45t50.5 -15.5q21 0 38 7t27.5 16.5 t18 26.5t11.5 30.5t5.5 36t2 35t0.5 34.5q0 111 -19 158t-81 47q-22 0 -38.5 -8t-26.5 -23t-16.5 -31t-9 -38.5t-3.5 -38t-1 -36.5z" unicode="b"/>
<glyph glyph-name="c" d="M421 343h-85v6q0 53 -21 76t-49 23q-52 0 -79 -35.5t-27 -132.5q0 -126 22 -174.5t84 -48.5q23 0 48 24.5t25 79.5v7h86v-6q0 -48 -16.5 -84t-42.5 -54t-51 -26t-49 -8q-45 0 -76 9t-59.5 34.5t-42.5 78t-14 133.5q0 51 3 85.5t14.5 72.5t31.5 60.5t56 37t87 14.5 q74 0 114.5 -41t40.5 -118v-13z" unicode="c"/>
<glyph glyph-name="d" d="M339 454v268h82v-722h-82v60h-2q-42 -70 -116 -70q-35 0 -60.5 9t-50.5 34t-38.5 78t-13.5 133q0 34 0.5 55.5t4 53t10 51.5t18.5 43.5t29.5 36.5t44 22t60.5 9q68 0 111 -61h3zM339 273q0 21 -1 36.5t-3.5 38t-9 38.5t-16.5 31t-26.5 23t-38.5 8q-62 0 -81 -47t-19 -158 q0 -22 0.5 -34.5t2 -35t5.5 -36t11.5 -30.5t18 -26.5t27.5 -16.5t38 -7q22 0 38.5 8t26.5 26t15.5 34.5t8 47t3 48.5t0.5 52z" unicode="d"/>
<glyph glyph-name="e" d="M436 226h-284q0 -99 24.5 -134t77.5 -35q40 0 63 27.5t25 68.5h90q-1 -82 -47.5 -122.5t-128.5 -40.5q-45 0 -76 9t-59.5 34.5t-42.5 78t-14 133.5q0 51 3 85.5t14.5 72.5t31.5 60.5t56 37t87 14.5q104 0 142 -57.5t38 -188.5v-43zM152 288h197q0 102 -24.5 133.5 t-76.5 31.5q-45 0 -70 -34.5t-26 -130.5z" unicode="e"/>
<glyph glyph-name="f" horiz-adv-x="278" unicode="f" d="M9 505h78v98q0 122 145 122q21 0 39 -3v-59q-3 0 -9 0.5t-9 0.5q-49 0 -66.5 -19.5t-17.5 -53.5v-86h102v-62h-102v-443h-82v443h-78v62z"/>
<glyph glyph-name="g" d="M339 443v62h82v-556q0 -80 -47.5 -110t-138.5 -30q-65 0 -109 31.5t-44 91.5v12h92q1 -35 22 -54t55 -19q42 0 65 23.5t23 63.5v105h-3q-15 -29 -46 -46t-65 -17q-50 0 -83.5 20t-50.5 58.5t-23.5 83.5t-6.5 106q0 66 13 114.5t30.5 73t41.5 39t40 17.5t33 3 q84 0 118 -72h2zM341 255v21q0 36 -2.5 59.5t-11 52.5t-30 44t-54.5 15q-27 0 -46 -13t-28.5 -30t-14.5 -44.5t-6 -46t-1 -45.5q0 -115 24 -157.5t74 -42.5q33 0 54 16t29 46.5t10.5 54t2.5 58.5v12z" unicode="g"/>
<glyph glyph-name="h" d="M428 0h-82v342q0 106 -90 106q-57 0 -80 -40t-23 -111v-297h-82v722h82v-282h4q24 43 55 59t82 16q67 0 100.5 -37t33.5 -120v-358z" unicode="h"/>
<glyph glyph-name="i" horiz-adv-x="222" unicode="i" d="M65 634v88h92v-88h-92zM152 505v-505h-82v505h82z"/>
<glyph glyph-name="j" horiz-adv-x="222" unicode="j" d="M65 634v88h92v-88h-92zM70 -74v579h82v-575q0 -65 -29 -93t-114 -28v70q31 0 46 9t15 38z"/>
<glyph glyph-name="k" horiz-adv-x="444" unicode="k" d="M154 283v-283h-82v722h82v-435h2l154 218h100l-168 -217l198 -288h-104l-180 283h-2z"/>
<glyph glyph-name="l" horiz-adv-x="222" unicode="l" d="M152 722v-722h-82v722h82z"/>
<glyph glyph-name="m" horiz-adv-x="722" unicode="m" d="M402 0h-82v350q0 98 -80 98q-19 0 -40.5 -10t-30.5 -24q-19 -32 -19 -74v-340h-82v400q0 47 -5 105h87v-63h2q32 73 126 73q38 0 71.5 -16.5t46.5 -48.5q34 65 120 65q138 0 138 -131v-384h-82v350q0 98 -80 98q-25 0 -35.5 -3t-26.5 -16q-28 -23 -28 -89v-340z"/>
<glyph glyph-name="n" d="M428 0h-82v350q0 98 -89 98q-103 0 -103 -149v-299h-82v400q0 47 -5 105h87v-65h4q24 42 54.5 58.5t80.5 16.5q76 0 105.5 -41.5t29.5 -123.5v-350z" unicode="n"/>
<glyph glyph-name="o" d="M250 -10q-45 0 -76 9t-59.5 34.5t-42.5 78t-14 133.5q0 51 3 85.5t14.5 72.5t31.5 60.5t56 37t87 14.5t87 -14.5t56 -37t31.5 -60.5t14.5 -72.5t3 -85.5q0 -81 -14 -133.5t-42.5 -78t-59.5 -34.5t-76 -9zM250 57q62 0 84 48.5t22 174.5q0 97 -27 132.5t-79 35.5 t-79 -35.5t-27 -132.5q0 -126 22 -174.5t84 -48.5z" unicode="o"/>
<glyph glyph-name="p" d="M161 505v-60h2q42 70 116 70q35 0 60.5 -9t50.5 -34t38.5 -78t13.5 -133q0 -34 -0.5 -55.5t-4 -53t-10 -51.5t-18.5 -43.5t-29.5 -36.5t-44 -22t-60.5 -9q-68 0 -111 61h-3v-242h-82v696h82zM256 57q62 0 81 46.5t19 157.5q0 26 -0.5 41t-3 40.5t-9.5 41t-17.5 32 t-29 24.5t-43.5 8q-31 0 -50.5 -15.5t-28 -45.5t-11 -55.5t-2.5 -61.5v-39q0 -33 2.5 -56.5t10.5 -54t29 -47t53 -16.5z" unicode="p"/>
<glyph glyph-name="q" d="M339 445v60h82v-696h-82v242h-3q-43 -61 -111 -61q-34 0 -60.5 9t-44 22t-29.5 36.5t-18.5 43.5t-10 51.5t-4 53t-0.5 55.5q0 80 13.5 133t38.5 78t50.5 34t60.5 9q74 0 116 -70h2zM244 57q32 0 53 16.5t29 47t10.5 54t2.5 56.5v38q0 36 -2.5 61.5t-11 55t-28 45 t-50.5 15.5q-25 0 -43.5 -7.5t-29 -24t-17.5 -31.5t-9.5 -41t-3 -40.5t-0.5 -40.5q0 -111 19 -157.5t81 -46.5z" unicode="q"/>
<glyph glyph-name="r" horiz-adv-x="333" unicode="r" d="M157 505v-76h2q24 54 57 70t99 16v-85q-4 0 -11 1t-11 2q-14 2 -22 2q-114 0 -114 -137v-298h-82v505h82z"/>
<glyph glyph-name="s" horiz-adv-x="444" unicode="s" d="M397 144q0 -79 -48 -116.5t-128 -37.5q-174 0 -174 157v7h93q0 -97 84 -97q39 0 63 20t24 57q0 24 -26 44.5t-63 37t-74 36t-63 51.5t-26 74q0 23 7.5 44.5t25.5 44t54.5 36t86.5 13.5q69 0 114.5 -33t45.5 -98v-12h-91q2 81 -79 81q-34 0 -56 -18t-22 -50 q0 -24 26 -43.5t63 -36t74 -35.5t63 -51t26 -75z"/>
<glyph glyph-name="t" horiz-adv-x="278" unicode="t" d="M-2 505h83v97l82 37v-134h110v-62h-110v-309q0 -17 1.5 -26t7.5 -22t22.5 -19t43.5 -6q1 0 37 4v-63q-9 -1 -37.5 -4.5t-43.5 -3.5q-113 0 -113 90v359h-83v62z"/>
<glyph glyph-name="u" d="M342 170v335h82v-400q0 -47 5 -105h-87v61h-3q-42 -71 -128 -71q-136 0 -136 130v385h82v-350q0 -47 22 -74.5t64 -27.5q38 0 68.5 29.5t30.5 87.5z" unicode="u"/>
<glyph glyph-name="v" horiz-adv-x="444" unicode="v" d="M164 0l-150 505h92l113 -428h2l122 428h86l-158 -505h-107z"/>
<glyph glyph-name="w" horiz-adv-x="722" unicode="w" d="M135 0l-126 505h91l91 -435h2l112 435h116l103 -435h2l100 435h87l-135 -505h-110l-108 430h-2l-113 -430h-110z"/>
<glyph glyph-name="x" horiz-adv-x="444" unicode="x" d="M270 264l167 -264h-108l-117 207l-109 -207h-97l157 264l-144 241h105l96 -181l102 181h99z"/>
<glyph glyph-name="y" horiz-adv-x="444" unicode="y" d="M103 505l121 -411h2l121 411h89l-229 -696h-85l57 191l-171 505h95z"/>
<glyph glyph-name="z" horiz-adv-x="389" unicode="z" d="M347 505v-75l-223 -363h230v-67h-319v77l220 359v2h-209v67h301z"/>
<glyph glyph-name="braceleft" horiz-adv-x="274" unicode="{" d="M179 196v-172q0 -45 18.5 -67t68.5 -22v-56h-17q-88 0 -120 33.5t-32 113.5v197q0 19 -3.5 31.5t-14 21t-17 12t-26.5 10t-29 9.5v56q47 10 68.5 26t21.5 51v186q0 35 10 60t24 38t35.5 21t37.5 9.5t37 1.5h25v-56q-51 0 -69 -22t-18 -68v-153q0 -52 -21.5 -81t-80.5 -40 v-2q61 -13 81.5 -46t20.5 -92z"/>
<glyph glyph-name="bar" horiz-adv-x="250" unicode="|" d="M94 -250v1000h62v-1000h-62z"/>
<glyph glyph-name="braceright" horiz-adv-x="274" unicode="}" d="M94 24v172q0 59 20.5 92t81.5 46v2q-59 11 -80.5 40t-21.5 81v153q0 46 -18 68t-69 22v56h25q21 0 37 -1.5t37.5 -9.5t35.5 -21t24 -38t10 -60v-186q0 -35 21.5 -51t68.5 -26v-56q-9 -3 -29 -9.5t-26.5 -10t-17 -12t-14 -21t-3.5 -31.5v-197q0 -80 -32 -113.5t-120 -33.5 h-17v56q50 0 68.5 22t18.5 67z"/>
<glyph glyph-name="asciitilde" d="M161 332q34 0 96 -35q68 -35 85 -35q44 0 81 83l34 -47q-49 -111 -116 -111q-23 0 -111 44q-48 25 -69 25q-20 0 -37.5 -16t-25 -31t-20.5 -43l-34 48q24 53 51 85.5t66 32.5z" unicode="~"/>
<glyph glyph-name="exclamdown" horiz-adv-x="333" unicode="¡" d="M132 364h71l18 -555h-109zM214 531v-104h-94v104h94z"/>
<glyph glyph-name="cent" horiz-adv-x="444" unicode="¢" d="M311 168h86q0 -80 -48.5 -129.5t-110.5 -49.5q-64 0 -102 20l-28 -67l-37 16l31 75q-56 59 -56 212q0 51 3 85.5t14.5 72.5t31.5 60.5t56 37t87 14.5q34 0 61 -9l26 63l35 -15l-26 -64q59 -38 59 -134v-13h-85q0 40 -8 63l-133 -321q23 -29 71 -29q36 0 54 32.5t19 79.5z M145 134l126 305q-12 9 -33 9q-52 0 -79 -35.5t-27 -132.5q0 -99 11 -146h2z"/>
<glyph glyph-name="sterling" horiz-adv-x="444" unicode="£" d="M-4 338v80h80v81q0 1 -0.5 11.5t-0.5 18.5q0 22 2.5 41.5t14 45.5t29.5 44.5t53.5 31.5t82.5 13q82 0 128.5 -43t46.5 -123v-14h-96v9q0 94 -80 94q-30 0 -49 -9t-27 -27.5t-10 -33.5t-2 -41v-14v-85h138v-80h-138v-258h260v-80h-426v80h74v258h-80z"/>
<glyph glyph-name="currency" horiz-adv-x="444" unicode="¤" d="M226 486q-68 0 -107.5 -52.5t-39.5 -133.5q0 -75 39 -129t102 -54q66 0 106 53.5t40 132.5q0 75 -38.5 129t-101.5 54zM1 110l39 42q-43 70 -43 148q0 84 43 151l-39 43l47 53l39 -43q59 49 139 49q68 0 131 -49l40 43l47 -53l-38 -43q42 -71 42 -156q0 -71 -42 -143 l38 -42l-47 -53l-40 43q-61 -50 -139 -50q-66 0 -131 50l-39 -43z"/>
<glyph glyph-name="yen" horiz-adv-x="444" unicode="¥" d="M66 132v67h114v66h-114v67h89l-157 362h97l130 -321l134 321h88l-160 -362h91v-67h-116v-66h116v-67h-116v-132h-82v132h-114z"/>
<glyph glyph-name="brokenbar" horiz-adv-x="250" unicode="¦" d="M94 675h62v-350h-62v350zM94 175h62v-350h-62v350z"/>
<glyph glyph-name="section" horiz-adv-x="444" unicode="§" d="M69 5v86q2 0 24.5 -9t49 -14.5t55.5 -5.5q38 0 67 17t29 50q0 30 -24.5 49t-60 30.5t-70.5 24.5t-59.5 40.5t-24.5 69.5q0 80 103 129q-44 21 -67 47.5t-23 70.5q0 72 51.5 109.5t121.5 37.5q60 0 114 -19v-84q-76 26 -109 26q-32 0 -58 -16.5t-26 -46.5 q0 -28 22.5 -46.5t55 -29.5t65 -24t55 -39.5t22.5 -66.5q0 -46 -29 -81t-74 -50v-2q47 -10 78 -42t31 -78q0 -77 -53.5 -115t-133.5 -38q-60 0 -132 20zM217 284q24 6 53.5 30.5t29.5 58.5q0 20 -11 35t-21 20.5t-31 13t-23 8.5q-77 -31 -77 -86q0 -16 3.5 -27.5t13 -19.5 t16 -12t23.5 -11t24 -10z"/>
<glyph glyph-name="dieresis" horiz-adv-x="278" unicode="¨" d="M274 694v-104h-94v104h94zM98 694v-104h-94v104h94z"/>
<glyph glyph-name="copyright" horiz-adv-x="800" unicode="©" d="M317 452v-142q0 -59 20.5 -81t60.5 -22q75 0 77 81h70q2 -62 -34 -99.5t-104 -37.5h-11q-21 0 -36 1.5t-38 11t-38 27t-26 51.5t-11 81v101q0 82 34.5 126.5t121.5 44.5q70 0 102.5 -30t32.5 -92v-6h-70q0 24 -5.5 40t-16 22t-19 8t-20.5 2h-8q-41 0 -61.5 -19.5 t-20.5 -67.5zM401 681q-133 0 -227 -93.5t-94 -226.5t93.5 -226.5t227.5 -93.5q133 0 226 93t93 227q0 133 -93 226.5t-226 93.5zM401 737q155 0 265 -109.5t110 -265.5q0 -157 -109.5 -267t-265.5 -110t-266.5 110t-110.5 267q0 156 110.5 265.5t266.5 109.5z"/>
<glyph glyph-name="ordfeminine" horiz-adv-x="300" unicode="ª" d="M206 428v44h-2q-21 -50 -87 -50q-50 0 -74.5 27t-24.5 73q0 98 169 98h18v8q0 31 -12 49.5t-48 18.5q-26 0 -41.5 -12t-15.5 -33v-5h-63q4 91 122 91q124 0 124 -91v-146q0 -32 7 -72h-72zM205 579q-71 -1 -91 -10q-30 -14 -30 -51q0 -55 48 -55q73 0 73 101v15z"/>
<glyph glyph-name="guillemotleft" horiz-adv-x="444" unicode="«" d="M293 77l-90 193l93 196h76l-79 -196l78 -193h-78zM121 77l-90 193l93 196h76l-79 -196l78 -193h-78z"/>
<glyph glyph-name="logicalnot" d="M395 117v205h-352v62h414v-267h-62z" unicode="¬"/>
<glyph glyph-name="registered" horiz-adv-x="800" unicode="®" d="M330 529v-136h90q31 0 47 20t16 50q0 27 -15.5 46.5t-47.5 19.5h-90zM330 337v-193h-70v433h172q59 0 90 -32t31 -76q0 -38 -26 -65t-68 -35v-2q42 -5 58 -26t18 -84q4 -78 17 -113h-69q-8 14 -11 34t-4.5 57t-2.5 53q-5 49 -65 49h-70zM401 681q-133 0 -227 -93.5 t-94 -226.5t93.5 -226.5t227.5 -93.5q133 0 226 93t93 227q0 133 -93 226.5t-226 93.5zM401 737q155 0 265 -109.5t110 -265.5q0 -157 -109.5 -267t-265.5 -110t-266.5 110t-110.5 267q0 156 110.5 265.5t266.5 109.5z"/>
<glyph glyph-name="degree" horiz-adv-x="400" unicode="°" d="M288 555q0 36 -26 62t-63 26q-36 0 -62 -26t-25 -62q0 -37 25.5 -62.5t62.5 -25.5q36 0 62 25.5t26 62.5zM350 555q0 -62 -44 -106t-106 -44t-106 44t-44 106q-1 61 43.5 105.5t106.5 44.5t106 -44.5t44 -105.5z"/>
<glyph glyph-name="plusminus" d="M43 0v62h414v-62h-414zM219 343v162h62v-162h176v-62h-176v-162h-62v162h-176v62h176z" unicode="±"/>
<glyph glyph-name="twosuperior" horiz-adv-x="266" unicode="²" d="M256 282h-243v53q24 30 57.5 71t46.5 57t30 39.5t22.5 36t10 28t4.5 32.5q0 22 -14 36t-42 14q-44 0 -42 -63h-71q0 2 -0.5 6.5t-0.5 6.5q0 46 29 76t81 30q68 0 99 -26.5t31 -82.5q0 -34 -12 -64t-24.5 -47.5t-54.5 -67t-68 -82.5h161v-53z"/>
<glyph glyph-name="threesuperior" horiz-adv-x="266" unicode="³" d="M95 476v48h11q36 0 56 18t20 51q0 62 -57 62q-55 0 -53 -64h-63v12q0 102 116 102q59 0 93 -27.5t34 -80.5q0 -28 -9.5 -47t-29 -29.5t-28.5 -13.5t-27 -7v-2q104 -12 104 -105q0 -59 -38.5 -89.5t-105.5 -30.5q-117 0 -117 112v12h64q1 -33 12.5 -50.5t45.5 -17.5 q69 0 69 65q0 46 -22 64t-75 18z"/>
<glyph glyph-name="acute" horiz-adv-x="278" unicode="´" d="M149 722h109l-131 -141h-67z"/>
<glyph glyph-name="mu" d="M342 0v61h-3q-42 -71 -128 -71q-37 0 -54 10v-191h-82v696h82v-350q0 -47 22 -74.5t64 -27.5q38 0 68.5 29.5t30.5 87.5v335h82v-400q0 -47 5 -105h-87z" unicode="µ"/>
<glyph glyph-name="mu" d="M342 0v61h-3q-42 -71 -128 -71q-37 0 -54 10v-191h-82v696h82v-350q0 -47 22 -74.5t64 -27.5q38 0 68.5 29.5t30.5 87.5v335h82v-400q0 -47 5 -105h-87z" unicode="μ"/>
<glyph glyph-name="paragraph" horiz-adv-x="440" unicode="¶" d="M165 -121v459h-1q-62 0 -109 57t-47 133q0 22 3.5 44t15 50.5t30.5 49.5t53.5 35.5t80.5 14.5h196v-843h-70v776h-82v-776h-70z"/>
<glyph glyph-name="cedilla" horiz-adv-x="278" unicode="¸" d="M82 -105l-17 19l63 86h48l-46 -60l2 -2q16 6 30 6q35 0 59 -20.5t24 -55.5q0 -47 -35.5 -70t-80.5 -23t-99 22l17 40q41 -15 65 -15q22 0 39.5 9.5t17.5 30.5q0 20 -14 30.5t-35 10.5q-6 0 -38 -8z"/>
<glyph glyph-name="onesuperior" horiz-adv-x="266" unicode="¹" d="M188 698v-416h-70v349l-68 -42v59q24 10 76 50h62z"/>
<glyph glyph-name="ordmasculine" horiz-adv-x="300" unicode="º" d="M150 422q-62 0 -96 30.5t-34 122.5q0 79 26 120.5t104 41.5t104 -41.5t26 -120.5q0 -48 -10 -80t-29.5 -47t-40.5 -20.5t-50 -5.5zM150 463q40 0 52 28t12 105q0 59 -15.5 79.5t-48.5 20.5t-48.5 -20.5t-15.5 -79.5q0 -77 12 -105t52 -28z"/>
<glyph glyph-name="guillemotright" horiz-adv-x="444" unicode="»" d="M323 77h-78l78 193l-79 196h76l93 -196zM151 77h-78l78 193l-79 196h76l93 -196z"/>
<glyph glyph-name="onequarter" horiz-adv-x="666" unicode="¼" d="M128 -27h-63l437 749h62zM188 698v-416h-70v349l-68 -42v59q24 10 76 50h62zM415 154h93v200h-2zM508 98h-157v51l128 267h99v-262h53v-56h-53v-98h-70v98z"/>
<glyph glyph-name="onehalf" horiz-adv-x="666" unicode="½" d="M98 -27h-63l437 749h62zM158 698v-416h-70v349l-68 -42v59q24 10 76 50h62zM628 0h-243v53q24 30 57.5 71t46.5 57t30 39.5t22.5 36t10 28t4.5 32.5q0 22 -14 36t-42 14q-44 0 -42 -63h-71q0 2 -0.5 6.5t-0.5 6.5q0 46 29 76t81 30q68 0 99 -26.5t31 -82.5q0 -34 -12 -64 t-24.5 -47.5t-54.5 -67t-68 -82.5h161v-53z"/>
<glyph glyph-name="threequarters" horiz-adv-x="666" unicode="¾" d="M163 -27h-63l437 749h62zM100 476v48h11q36 0 56 18t20 51q0 62 -57 62q-55 0 -53 -64h-63v12q0 102 116 102q59 0 93 -27.5t34 -80.5q0 -28 -9.5 -47t-29 -29.5t-28.5 -13.5t-27 -7v-2q104 -12 104 -105q0 -59 -38.5 -89.5t-105.5 -30.5q-117 0 -117 112v12h64 q1 -33 12.5 -50.5t45.5 -17.5q69 0 69 65q0 46 -22 64t-75 18zM430 154h93v200h-2zM523 98h-157v51l128 267h99v-262h53v-56h-53v-98h-70v98z"/>
<glyph glyph-name="questiondown" horiz-adv-x="444" unicode="¿" d="M272 531v-104h-94v104h94zM266 348v-114q0 -29 -19 -62t-41.5 -59.5t-41.5 -68t-19 -85.5q0 -38 19 -68t56 -30q74 0 74 126v13h94v-18q0 -188 -174 -188q-76 0 -119.5 45t-43.5 122q0 56 21 105t45.5 76t45.5 58t21 55v93h82z"/>
<glyph glyph-name="Agrave" horiz-adv-x="611" unicode="À" d="M187 939h109l89 -141h-67zM416 252l-116 385h-2l-113 -385h231zM15 0l229 722h117l235 -722h-103l-52 172h-279l-54 -172h-93z"/>
<glyph glyph-name="Aacute" horiz-adv-x="611" unicode="Á" d="M316 939h109l-131 -141h-67zM416 252l-116 385h-2l-113 -385h231zM15 0l229 722h117l235 -722h-103l-52 172h-279l-54 -172h-93z"/>
<glyph glyph-name="Acircumflex" horiz-adv-x="611" unicode="Â" d="M372 798l-66 94l-66 -94h-80l100 141h92l100 -141h-80zM416 252l-116 385h-2l-113 -385h231zM15 0l229 722h117l235 -722h-103l-52 172h-279l-54 -172h-93z"/>
<glyph glyph-name="Atilde" horiz-adv-x="611" unicode="Ã" d="M425 911h51q-5 -45 -31 -76q-28 -33 -73 -33q-19 0 -72 19q-48 19 -72 19q-17 0 -30.5 -14t-15.5 -31h-46q5 49 31 78.5t73 29.5q29 0 75 -18q44 -19 59 -19q47 0 51 45zM416 252l-116 385h-2l-113 -385h231zM15 0l229 722h117l235 -722h-103l-52 172h-279l-54 -172h-93z "/>
<glyph glyph-name="Adieresis" horiz-adv-x="611" unicode="Ä" d="M441 911v-104h-94v104h94zM265 911v-104h-94v104h94zM416 252l-116 385h-2l-113 -385h231zM15 0l229 722h117l235 -722h-103l-52 172h-279l-54 -172h-93z"/>
<glyph glyph-name="Aring" horiz-adv-x="611" unicode="Å" d="M366 888q0 25 -18 42.5t-42 17.5q-25 0 -42.5 -17.5t-17.5 -42.5q0 -24 17.5 -42t42.5 -18q24 0 42 18t18 42zM306 787q-42 0 -71.5 29.5t-29.5 71.5t29.5 71.5t71.5 29.5t71.5 -29.5t29.5 -71.5t-29.5 -71.5t-71.5 -29.5zM416 252l-116 385h-2l-113 -385h231zM15 0 l229 722h117l235 -722h-103l-52 172h-279l-54 -172h-93z"/>
<glyph glyph-name="AE" horiz-adv-x="833" unicode="Æ" d="M448 252l-55 396h-2l-169 -396h226zM112 0h-97l317 722h448v-80h-297l31 -232h258v-80h-244l35 -250h227v-80h-306l-25 172h-274z"/>
<glyph glyph-name="Ccedilla" horiz-adv-x="556" unicode="Ç" d="M494 523h-95v13q0 66 -21 92q-13 15 -37.5 23t-43.5 8q-34 0 -60.5 -12.5t-36.5 -24t-12 -19.5q0 -1 -2.5 -5.5t-4.5 -9.5t-4.5 -16.5t-4.5 -26t-3.5 -39t-1.5 -53.5v-193q0 -64 9.5 -105.5t29 -60.5t40 -25.5t50.5 -6.5q15 0 30 4.5t36 17.5t34.5 46.5t13.5 82.5h95v-8 q0 -61 -17 -105t-38.5 -65.5t-54 -33.5t-51 -14t-40.5 -2l-35 -45l2 -2q16 6 30 6q35 0 59 -20.5t24 -55.5q0 -47 -35.5 -70t-80.5 -23t-99 22l17 40q41 -15 65 -15q22 0 39.5 9.5t17.5 30.5q0 20 -14 30.5t-35 10.5q-6 0 -38 -8l-17 19l53 73q-29 2 -52 8.5t-49 25.5 t-43 48.5t-28.5 81t-11.5 120.5v204q0 145 59 203.5t173 58.5q98 0 144 -46.5t46 -139.5q0 -18 -1 -28z"/>
<glyph glyph-name="Egrave" d="M131 939h109l89 -141h-67zM459 0h-378v722h372v-80h-280v-232h260v-80h-260v-250h286v-80z" unicode="È"/>
<glyph glyph-name="Eacute" d="M260 939h109l-131 -141h-67zM459 0h-378v722h372v-80h-280v-232h260v-80h-260v-250h286v-80z" unicode="É"/>
<glyph glyph-name="Ecircumflex" d="M316 798l-66 94l-66 -94h-80l100 141h92l100 -141h-80zM459 0h-378v722h372v-80h-280v-232h260v-80h-260v-250h286v-80z" unicode="Ê"/>
<glyph glyph-name="Edieresis" d="M385 911v-104h-94v104h94zM209 911v-104h-94v104h94zM459 0h-378v722h372v-80h-280v-232h260v-80h-260v-250h286v-80z" unicode="Ë"/>
<glyph glyph-name="Igrave" horiz-adv-x="278" unicode="Ì" d="M20 939h109l89 -141h-67zM185 722v-722h-92v722h92z"/>
<glyph glyph-name="Iacute" horiz-adv-x="278" unicode="Í" d="M149 939h109l-131 -141h-67zM185 722v-722h-92v722h92z"/>
<glyph glyph-name="Icircumflex" horiz-adv-x="278" unicode="Î" d="M205 798l-66 94l-66 -94h-80l100 141h92l100 -141h-80zM185 722v-722h-92v722h92z"/>
<glyph glyph-name="Idieresis" horiz-adv-x="278" unicode="Ï" d="M274 911v-104h-94v104h94zM98 911v-104h-94v104h94zM185 722v-722h-92v722h92z"/>
<glyph glyph-name="Eth" horiz-adv-x="611" unicode="Ð" d="M175 366v-286h87q98 0 136.5 46t38.5 170v146q0 108 -34 154t-107 46h-121v-220h151v-56h-151zM83 0v366h-70v56h70v300h222q143 0 194 -110q32 -67 32 -228q0 -221 -44 -291q-59 -93 -238 -93h-166z"/>
<glyph glyph-name="Ntilde" horiz-adv-x="667" unicode="Ñ" d="M453 911h51q-5 -45 -31 -76q-28 -33 -73 -33q-19 0 -72 19q-47 19 -72 19q-17 0 -30.5 -14t-15.5 -31h-46q5 49 31 78.5t73 29.5q29 0 75 -18q44 -19 59 -19q47 0 51 45zM499 722h82v-722h-126l-285 626h-2v-626h-82v722h130l281 -618h2v618z"/>
<glyph glyph-name="Ograve" horiz-adv-x="611" unicode="Ò" d="M187 939h109l89 -141h-67zM305 62q69 0 101 42.5t32 155.5v244q0 43 -11.5 74t-26.5 46.5t-36 24t-33.5 10t-25.5 1.5t-25.5 -1.5t-33.5 -10t-36 -24t-26.5 -46.5t-11.5 -74v-244q0 -113 32 -155.5t101 -42.5zM305 -15q-117 0 -172 65.5t-55 213.5v237q0 111 57.5 173.5 t169.5 62.5t169.5 -62.5t57.5 -173.5v-237q0 -148 -55 -213.5t-172 -65.5z"/>
<glyph glyph-name="Oacute" horiz-adv-x="611" unicode="Ó" d="M316 939h109l-131 -141h-67zM305 62q69 0 101 42.5t32 155.5v244q0 43 -11.5 74t-26.5 46.5t-36 24t-33.5 10t-25.5 1.5t-25.5 -1.5t-33.5 -10t-36 -24t-26.5 -46.5t-11.5 -74v-244q0 -113 32 -155.5t101 -42.5zM305 -15q-117 0 -172 65.5t-55 213.5v237 q0 111 57.5 173.5t169.5 62.5t169.5 -62.5t57.5 -173.5v-237q0 -148 -55 -213.5t-172 -65.5z"/>
<glyph glyph-name="Ocircumflex" horiz-adv-x="611" unicode="Ô" d="M372 798l-66 94l-66 -94h-80l100 141h92l100 -141h-80zM305 62q69 0 101 42.5t32 155.5v244q0 43 -11.5 74t-26.5 46.5t-36 24t-33.5 10t-25.5 1.5t-25.5 -1.5t-33.5 -10t-36 -24t-26.5 -46.5t-11.5 -74v-244q0 -113 32 -155.5t101 -42.5zM305 -15q-117 0 -172 65.5 t-55 213.5v237q0 111 57.5 173.5t169.5 62.5t169.5 -62.5t57.5 -173.5v-237q0 -148 -55 -213.5t-172 -65.5z"/>
<glyph glyph-name="Otilde" horiz-adv-x="611" unicode="Õ" d="M425 911h51q-5 -45 -31 -76q-28 -33 -73 -33q-19 0 -72 19q-48 19 -72 19q-17 0 -30.5 -14t-15.5 -31h-46q5 49 31 78.5t73 29.5q29 0 75 -18q44 -19 59 -19q47 0 51 45zM305 62q69 0 101 42.5t32 155.5v244q0 43 -11.5 74t-26.5 46.5t-36 24t-33.5 10t-25.5 1.5 t-25.5 -1.5t-33.5 -10t-36 -24t-26.5 -46.5t-11.5 -74v-244q0 -113 32 -155.5t101 -42.5zM305 -15q-117 0 -172 65.5t-55 213.5v237q0 111 57.5 173.5t169.5 62.5t169.5 -62.5t57.5 -173.5v-237q0 -148 -55 -213.5t-172 -65.5z"/>
<glyph glyph-name="Odieresis" horiz-adv-x="611" unicode="Ö" d="M441 911v-104h-94v104h94zM265 911v-104h-94v104h94zM305 62q69 0 101 42.5t32 155.5v244q0 43 -11.5 74t-26.5 46.5t-36 24t-33.5 10t-25.5 1.5t-25.5 -1.5t-33.5 -10t-36 -24t-26.5 -46.5t-11.5 -74v-244q0 -113 32 -155.5t101 -42.5zM305 -15q-117 0 -172 65.5 t-55 213.5v237q0 111 57.5 173.5t169.5 62.5t169.5 -62.5t57.5 -173.5v-237q0 -148 -55 -213.5t-172 -65.5z"/>
<glyph glyph-name="multiply" d="M206 253l-163 163l44 44l163 -163l163 163l44 -44l-163 -163l163 -163l-44 -44l-163 163l-163 -163l-44 44z" unicode="×"/>
<glyph glyph-name="Oslash" horiz-adv-x="611" unicode="Ø" d="M41 -10l67 102q-30 62 -30 172v237q0 111 57.5 173.5t169.5 62.5q120 0 178 -71l51 79l35 -23l-62 -95q25 -50 25 -126v-237q0 -148 -55 -213.5t-172 -65.5q-116 0 -173 69l-57 -87zM176 196l250 383q-29 81 -121 81q-13 0 -25.5 -1.5t-33.5 -10t-36 -24t-26.5 -46.5 t-11.5 -74v-244q0 -40 4 -64zM437 520l-249 -380q27 -78 117 -78q69 0 101 42.5t32 155.5v244q0 11 -1 16z"/>
<glyph glyph-name="Ugrave" horiz-adv-x="611" unicode="Ù" d="M187 939h109l89 -141h-67zM78 264v458h92v-462q0 -113 32.5 -155.5t102.5 -42.5t102.5 42.5t32.5 155.5v462h92v-458q0 -148 -55 -213.5t-172 -65.5t-172 65.5t-55 213.5z"/>
<glyph glyph-name="Uacute" horiz-adv-x="611" unicode="Ú" d="M316 939h109l-131 -141h-67zM78 264v458h92v-462q0 -113 32.5 -155.5t102.5 -42.5t102.5 42.5t32.5 155.5v462h92v-458q0 -148 -55 -213.5t-172 -65.5t-172 65.5t-55 213.5z"/>
<glyph glyph-name="Ucircumflex" horiz-adv-x="611" unicode="Û" d="M372 798l-66 94l-66 -94h-80l100 141h92l100 -141h-80zM78 264v458h92v-462q0 -113 32.5 -155.5t102.5 -42.5t102.5 42.5t32.5 155.5v462h92v-458q0 -148 -55 -213.5t-172 -65.5t-172 65.5t-55 213.5z"/>
<glyph glyph-name="Udieresis" horiz-adv-x="611" unicode="Ü" d="M441 911v-104h-94v104h94zM265 911v-104h-94v104h94zM78 264v458h92v-462q0 -113 32.5 -155.5t102.5 -42.5t102.5 42.5t32.5 155.5v462h92v-458q0 -148 -55 -213.5t-172 -65.5t-172 65.5t-55 213.5z"/>
<glyph glyph-name="Yacute" d="M260 939h109l-131 -141h-67zM252 373l146 349h93l-197 -447v-275h-92v275l-194 447h103z" unicode="Ý"/>
<glyph glyph-name="Thorn" horiz-adv-x="556" unicode="Þ" d="M93 0v722h92v-122h122q201 0 201 -206q0 -58 -20.5 -99.5t-53.5 -61.5t-64.5 -28.5t-63.5 -8.5h-121v-196h-92zM185 520v-244h101q19 0 37 4t40.5 15t36.5 37.5t14 66.5q0 38 -12.5 64.5t-31.5 37.5t-33 15t-25 4h-127z"/>
<glyph glyph-name="germandbls" horiz-adv-x="556" unicode="ß" d="M501 155q0 -20 -2 -37.5t-11 -42.5t-24.5 -42.5t-45.5 -30.5t-71 -13q-149 0 -149 136h86v-5q0 -29 16 -46.5t46 -17.5q69 0 69 92q0 39 -26 70t-56.5 49.5t-56.5 52t-26 77.5q0 32 52 90q51 59 51 91q0 45 -24.5 68.5t-68.5 23.5q-30 0 -51.5 -8.5t-32.5 -19t-16.5 -30 t-6.5 -32.5t-1 -34v-546h-82v579q0 45 21 78t52.5 49t60.5 23.5t54 7.5q83 0 135 -35t52 -116q0 -53 -53 -106q-3 -3 -15.5 -14.5t-16.5 -16t-11.5 -13.5t-10 -17t-2.5 -17q0 -19 17 -38t41 -37t48.5 -39.5t41.5 -56t17 -76.5z"/>
<glyph glyph-name="agrave" d="M131 722h109l89 -141h-67zM332 0v73h-2q-36 -83 -127 -83q-76 0 -107 43.5t-31 122.5q0 50 20 83t56.5 48t72 20.5t83.5 5.5h33q0 4 0.5 13.5t0.5 14.5q0 53 -17 82.5t-69 29.5q-38 0 -59 -21t-21 -57q0 -2 0.5 -6t0.5 -6h-89q3 82 45.5 117t125.5 35q91 0 127.5 -40.5 t36.5 -111.5v-243q0 -55 10 -120h-90zM330 251q-89 -1 -118 -10q-65 -20 -65 -91q0 -40 20 -66.5t59 -26.5q105 0 105 166q0 4 -0.5 13.5t-0.5 14.5z" unicode="à"/>
<glyph glyph-name="aacute" d="M260 722h109l-131 -141h-67zM332 0v73h-2q-36 -83 -127 -83q-76 0 -107 43.5t-31 122.5q0 50 20 83t56.5 48t72 20.5t83.5 5.5h33q0 4 0.5 13.5t0.5 14.5q0 53 -17 82.5t-69 29.5q-38 0 -59 -21t-21 -57q0 -2 0.5 -6t0.5 -6h-89q3 82 45.5 117t125.5 35q91 0 127.5 -40.5 t36.5 -111.5v-243q0 -55 10 -120h-90zM330 251q-89 -1 -118 -10q-65 -20 -65 -91q0 -40 20 -66.5t59 -26.5q105 0 105 166q0 4 -0.5 13.5t-0.5 14.5z" unicode="á"/>
<glyph glyph-name="acircumflex" d="M316 581l-66 94l-66 -94h-80l100 141h92l100 -141h-80zM332 0v73h-2q-36 -83 -127 -83q-76 0 -107 43.5t-31 122.5q0 50 20 83t56.5 48t72 20.5t83.5 5.5h33q0 4 0.5 13.5t0.5 14.5q0 53 -17 82.5t-69 29.5q-38 0 -59 -21t-21 -57q0 -2 0.5 -6t0.5 -6h-89q3 82 45.5 117 t125.5 35q91 0 127.5 -40.5t36.5 -111.5v-243q0 -55 10 -120h-90zM330 251q-89 -1 -118 -10q-65 -20 -65 -91q0 -40 20 -66.5t59 -26.5q105 0 105 166q0 4 -0.5 13.5t-0.5 14.5z" unicode="â"/>
<glyph glyph-name="atilde" d="M369 694h51q-5 -45 -31 -76q-28 -33 -73 -33q-19 0 -72 19q-48 19 -72 19q-17 0 -30.5 -14t-15.5 -31h-46q5 49 31 78.5t73 29.5q29 0 75 -18q44 -19 59 -19q47 0 51 45zM332 0v73h-2q-36 -83 -127 -83q-76 0 -107 43.5t-31 122.5q0 50 20 83t56.5 48t72 20.5t83.5 5.5 h33q0 4 0.5 13.5t0.5 14.5q0 53 -17 82.5t-69 29.5q-38 0 -59 -21t-21 -57q0 -2 0.5 -6t0.5 -6h-89q3 82 45.5 117t125.5 35q91 0 127.5 -40.5t36.5 -111.5v-243q0 -55 10 -120h-90zM330 251q-89 -1 -118 -10q-65 -20 -65 -91q0 -40 20 -66.5t59 -26.5q105 0 105 166 q0 4 -0.5 13.5t-0.5 14.5z" unicode="ã"/>
<glyph glyph-name="adieresis" d="M385 694v-104h-94v104h94zM209 694v-104h-94v104h94zM332 0v73h-2q-36 -83 -127 -83q-76 0 -107 43.5t-31 122.5q0 50 20 83t56.5 48t72 20.5t83.5 5.5h33q0 4 0.5 13.5t0.5 14.5q0 53 -17 82.5t-69 29.5q-38 0 -59 -21t-21 -57q0 -2 0.5 -6t0.5 -6h-89q3 82 45.5 117 t125.5 35q91 0 127.5 -40.5t36.5 -111.5v-243q0 -55 10 -120h-90zM330 251q-89 -1 -118 -10q-65 -20 -65 -91q0 -40 20 -66.5t59 -26.5q105 0 105 166q0 4 -0.5 13.5t-0.5 14.5z" unicode="ä"/>
<glyph glyph-name="aring" d="M310 671q0 25 -18 42.5t-42 17.5q-25 0 -42.5 -17.5t-17.5 -42.5q0 -24 17.5 -42t42.5 -18q24 0 42 18t18 42zM250 570q-42 0 -71.5 29.5t-29.5 71.5t29.5 71.5t71.5 29.5t71.5 -29.5t29.5 -71.5t-29.5 -71.5t-71.5 -29.5zM332 0v73h-2q-36 -83 -127 -83q-76 0 -107 43.5 t-31 122.5q0 50 20 83t56.5 48t72 20.5t83.5 5.5h33q0 4 0.5 13.5t0.5 14.5q0 53 -17 82.5t-69 29.5q-38 0 -59 -21t-21 -57q0 -2 0.5 -6t0.5 -6h-89q3 82 45.5 117t125.5 35q91 0 127.5 -40.5t36.5 -111.5v-243q0 -55 10 -120h-90zM330 251q-89 -1 -118 -10 q-65 -20 -65 -91q0 -40 20 -66.5t59 -26.5q105 0 105 166q0 4 -0.5 13.5t-0.5 14.5z" unicode="å"/>
<glyph glyph-name="ae" horiz-adv-x="778" unicode="æ" d="M341 240h-32q-33 0 -55 -2.5t-46.5 -11.5t-37 -30.5t-12.5 -54.5q0 -39 19.5 -61.5t59.5 -22.5q105 0 105 156q0 4 -0.5 13t-0.5 14zM711 240h-283q3 -89 12 -119q20 -64 85 -64q89 0 94 105h89q0 -33 -6 -58.5t-23.5 -53.5t-58 -44t-100.5 -16q-50 0 -90.5 23t-54.5 68 q-39 -91 -159 -91q-72 0 -110.5 39.5t-38.5 111.5q0 31 7.5 55t17.5 40t30 27.5t35 18t43.5 10.5t45 5t49 2.5t46.5 2.5v51q0 51 -22 75.5t-72 24.5q-38 0 -59 -21t-21 -57q0 -2 0.5 -6t0.5 -6h-89q3 82 45.5 117t125.5 35q55 0 92 -15t52 -58h2q11 37 47.5 55t80.5 18 q29 0 49 -2.5t49 -15t46.5 -35.5t31 -67.5t13.5 -107.5q0 -15 -2 -47zM428 302h196v11q0 140 -100 140q-96 0 -96 -151z"/>
<glyph glyph-name="ccedilla" d="M421 343h-85v6q0 53 -21 76t-49 23q-52 0 -79 -35.5t-27 -132.5q0 -126 22 -174.5t84 -48.5q23 0 48 24.5t25 79.5v7h86v-6q0 -45 -14.5 -79t-37.5 -52.5t-46 -28t-47 -11.5l-39 -51l2 -2q16 6 30 6q35 0 59 -20.5t24 -55.5q0 -47 -35.5 -70t-80.5 -23t-99 22l17 40 q41 -15 65 -15q22 0 39.5 9.5t17.5 30.5q0 20 -14 30.5t-35 10.5q-6 0 -38 -8l-17 19l57 77q-37 3 -63.5 15.5t-49.5 39.5t-34.5 77t-11.5 122q0 51 3 85.5t14.5 72.5t31.5 60.5t56 37t87 14.5q74 0 114.5 -41t40.5 -118v-13z" unicode="ç"/>
<glyph glyph-name="egrave" d="M131 722h109l89 -141h-67zM436 226h-284q0 -99 24.5 -134t77.5 -35q40 0 63 27.5t25 68.5h90q-1 -82 -47.5 -122.5t-128.5 -40.5q-45 0 -76 9t-59.5 34.5t-42.5 78t-14 133.5q0 51 3 85.5t14.5 72.5t31.5 60.5t56 37t87 14.5q104 0 142 -57.5t38 -188.5v-43zM152 288h197 q0 102 -24.5 133.5t-76.5 31.5q-45 0 -70 -34.5t-26 -130.5z" unicode="è"/>
<glyph glyph-name="eacute" d="M260 722h109l-131 -141h-67zM436 226h-284q0 -99 24.5 -134t77.5 -35q40 0 63 27.5t25 68.5h90q-1 -82 -47.5 -122.5t-128.5 -40.5q-45 0 -76 9t-59.5 34.5t-42.5 78t-14 133.5q0 51 3 85.5t14.5 72.5t31.5 60.5t56 37t87 14.5q104 0 142 -57.5t38 -188.5v-43zM152 288 h197q0 102 -24.5 133.5t-76.5 31.5q-45 0 -70 -34.5t-26 -130.5z" unicode="é"/>
<glyph glyph-name="ecircumflex" d="M316 581l-66 94l-66 -94h-80l100 141h92l100 -141h-80zM436 226h-284q0 -99 24.5 -134t77.5 -35q40 0 63 27.5t25 68.5h90q-1 -82 -47.5 -122.5t-128.5 -40.5q-45 0 -76 9t-59.5 34.5t-42.5 78t-14 133.5q0 51 3 85.5t14.5 72.5t31.5 60.5t56 37t87 14.5q104 0 142 -57.5 t38 -188.5v-43zM152 288h197q0 102 -24.5 133.5t-76.5 31.5q-45 0 -70 -34.5t-26 -130.5z" unicode="ê"/>
<glyph glyph-name="edieresis" d="M385 694v-104h-94v104h94zM209 694v-104h-94v104h94zM436 226h-284q0 -99 24.5 -134t77.5 -35q40 0 63 27.5t25 68.5h90q-1 -82 -47.5 -122.5t-128.5 -40.5q-45 0 -76 9t-59.5 34.5t-42.5 78t-14 133.5q0 51 3 85.5t14.5 72.5t31.5 60.5t56 37t87 14.5q104 0 142 -57.5 t38 -188.5v-43zM152 288h197q0 102 -24.5 133.5t-76.5 31.5q-45 0 -70 -34.5t-26 -130.5z" unicode="ë"/>
<glyph glyph-name="igrave" horiz-adv-x="222" unicode="ì" d="M-8 722h109l89 -141h-67zM152 0h-82v505h82v-505z"/>
<glyph glyph-name="iacute" horiz-adv-x="222" unicode="í" d="M121 722h109l-131 -141h-67zM152 0h-82v505h82v-505z"/>
<glyph glyph-name="icircumflex" horiz-adv-x="222" unicode="î" d="M177 581l-66 94l-66 -94h-80l100 141h92l100 -141h-80zM152 0h-82v505h82v-505z"/>
<glyph glyph-name="idieresis" horiz-adv-x="222" unicode="ï" d="M246 694v-104h-94v104h94zM70 694v-104h-94v104h94zM152 0h-82v505h82v-505z"/>
<glyph glyph-name="eth" d="M250 56q62 0 84 47.5t22 170.5q0 95 -27 130t-79 35t-79 -35t-27 -130q0 -123 22 -170.5t84 -47.5zM140 570l-31 30l83 49q-42 35 -84 57l55 47q50 -25 97 -64l93 55l30 -33l-91 -53q78 -79 114 -171.5t36 -246.5q0 -79 -14 -131t-42.5 -76.5t-59.5 -33.5t-76 -9t-76 9 t-59.5 33.5t-42.5 76.5t-14 131q0 50 3 84t13.5 71t29.5 59t53 36.5t81 14.5q52 0 89 -37l2 2q-24 70 -101 151z" unicode="ð"/>
<glyph glyph-name="ntilde" d="M369 694h51q-5 -45 -31 -76q-28 -33 -73 -33q-19 0 -72 19q-48 19 -72 19q-17 0 -30.5 -14t-15.5 -31h-46q5 49 31 78.5t73 29.5q29 0 75 -18q44 -19 59 -19q47 0 51 45zM428 0h-82v350q0 98 -89 98q-103 0 -103 -149v-299h-82v400q0 47 -5 105h87v-65h4q24 42 54.5 58.5 t80.5 16.5q76 0 105.5 -41.5t29.5 -123.5v-350z" unicode="ñ"/>
<glyph glyph-name="ograve" d="M131 722h109l89 -141h-67zM250 -10q-45 0 -76 9t-59.5 34.5t-42.5 78t-14 133.5q0 51 3 85.5t14.5 72.5t31.5 60.5t56 37t87 14.5t87 -14.5t56 -37t31.5 -60.5t14.5 -72.5t3 -85.5q0 -81 -14 -133.5t-42.5 -78t-59.5 -34.5t-76 -9zM250 57q62 0 84 48.5t22 174.5 q0 97 -27 132.5t-79 35.5t-79 -35.5t-27 -132.5q0 -126 22 -174.5t84 -48.5z" unicode="ò"/>
<glyph glyph-name="oacute" d="M260 722h109l-131 -141h-67zM250 -10q-45 0 -76 9t-59.5 34.5t-42.5 78t-14 133.5q0 51 3 85.5t14.5 72.5t31.5 60.5t56 37t87 14.5t87 -14.5t56 -37t31.5 -60.5t14.5 -72.5t3 -85.5q0 -81 -14 -133.5t-42.5 -78t-59.5 -34.5t-76 -9zM250 57q62 0 84 48.5t22 174.5 q0 97 -27 132.5t-79 35.5t-79 -35.5t-27 -132.5q0 -126 22 -174.5t84 -48.5z" unicode="ó"/>
<glyph glyph-name="ocircumflex" d="M316 581l-66 94l-66 -94h-80l100 141h92l100 -141h-80zM250 -10q-45 0 -76 9t-59.5 34.5t-42.5 78t-14 133.5q0 51 3 85.5t14.5 72.5t31.5 60.5t56 37t87 14.5t87 -14.5t56 -37t31.5 -60.5t14.5 -72.5t3 -85.5q0 -81 -14 -133.5t-42.5 -78t-59.5 -34.5t-76 -9zM250 57 q62 0 84 48.5t22 174.5q0 97 -27 132.5t-79 35.5t-79 -35.5t-27 -132.5q0 -126 22 -174.5t84 -48.5z" unicode="ô"/>
<glyph glyph-name="otilde" d="M369 694h51q-5 -45 -31 -76q-28 -33 -73 -33q-19 0 -72 19q-48 19 -72 19q-17 0 -30.5 -14t-15.5 -31h-46q5 49 31 78.5t73 29.5q29 0 75 -18q44 -19 59 -19q47 0 51 45zM250 -10q-45 0 -76 9t-59.5 34.5t-42.5 78t-14 133.5q0 51 3 85.5t14.5 72.5t31.5 60.5t56 37 t87 14.5t87 -14.5t56 -37t31.5 -60.5t14.5 -72.5t3 -85.5q0 -81 -14 -133.5t-42.5 -78t-59.5 -34.5t-76 -9zM250 57q62 0 84 48.5t22 174.5q0 97 -27 132.5t-79 35.5t-79 -35.5t-27 -132.5q0 -126 22 -174.5t84 -48.5z" unicode="õ"/>
<glyph glyph-name="odieresis" d="M385 694v-104h-94v104h94zM209 694v-104h-94v104h94zM250 -10q-45 0 -76 9t-59.5 34.5t-42.5 78t-14 133.5q0 51 3 85.5t14.5 72.5t31.5 60.5t56 37t87 14.5t87 -14.5t56 -37t31.5 -60.5t14.5 -72.5t3 -85.5q0 -81 -14 -133.5t-42.5 -78t-59.5 -34.5t-76 -9zM250 57 q62 0 84 48.5t22 174.5q0 97 -27 132.5t-79 35.5t-79 -35.5t-27 -132.5q0 -126 22 -174.5t84 -48.5z" unicode="ö"/>
<glyph glyph-name="divide" d="M297 104v-104h-94v104h94zM297 506v-104h-94v104h94zM43 222v62h414v-62h-414z" unicode="÷"/>
<glyph glyph-name="oslash" d="M384 472l48 67l32 -20l-56 -78q34 -57 34 -196q0 -81 -14 -133.5t-42.5 -78t-59.5 -34.5t-76 -9q-93 0 -135 43l-48 -68l-31 22l56 78q-34 62 -34 180q0 51 3 85.5t14.5 72.5t31.5 60.5t56 37t87 14.5q88 0 134 -43zM349 359l-182 -255q23 -47 83 -47q62 0 84 48.5 t22 174.5q0 51 -7 79zM153 150l181 253q-24 45 -84 45q-52 0 -79 -35.5t-27 -132.5q0 -84 9 -130z" unicode="ø"/>
<glyph glyph-name="ugrave" d="M131 722h109l89 -141h-67zM342 170v335h82v-400q0 -47 5 -105h-87v61h-3q-42 -71 -128 -71q-136 0 -136 130v385h82v-350q0 -47 22 -74.5t64 -27.5q38 0 68.5 29.5t30.5 87.5z" unicode="ù"/>
<glyph glyph-name="uacute" d="M260 722h109l-131 -141h-67zM342 170v335h82v-400q0 -47 5 -105h-87v61h-3q-42 -71 -128 -71q-136 0 -136 130v385h82v-350q0 -47 22 -74.5t64 -27.5q38 0 68.5 29.5t30.5 87.5z" unicode="ú"/>
<glyph glyph-name="ucircumflex" d="M316 581l-66 94l-66 -94h-80l100 141h92l100 -141h-80zM342 170v335h82v-400q0 -47 5 -105h-87v61h-3q-42 -71 -128 -71q-136 0 -136 130v385h82v-350q0 -47 22 -74.5t64 -27.5q38 0 68.5 29.5t30.5 87.5z" unicode="û"/>
<glyph glyph-name="udieresis" d="M385 694v-104h-94v104h94zM209 694v-104h-94v104h94zM342 170v335h82v-400q0 -47 5 -105h-87v61h-3q-42 -71 -128 -71q-136 0 -136 130v385h82v-350q0 -47 22 -74.5t64 -27.5q38 0 68.5 29.5t30.5 87.5z" unicode="ü"/>
<glyph glyph-name="yacute" horiz-adv-x="444" unicode="ý" d="M232 722h109l-131 -141h-67zM103 505l121 -411h2l121 411h89l-229 -696h-85l57 191l-171 505h95z"/>
<glyph glyph-name="thorn" d="M79 -191v913h82v-277h2q42 70 112 70q34 0 60.5 -9t44 -22t29.5 -36.5t18.5 -43.5t10 -51.5t4 -53t0.5 -55.5q0 -80 -13.5 -133t-38.5 -78t-50.5 -34t-60.5 -9q-72 0 -115 61h-3v-242h-82zM161 273v-39q0 -36 2.5 -61.5t11 -55t28 -45t50.5 -15.5q21 0 38 7t27.5 16.5 t18 26.5t11.5 30.5t5.5 36t2 35t0.5 34.5q0 111 -19 158t-81 47q-22 0 -38.5 -8t-26.5 -23t-16.5 -31t-9 -38.5t-3.5 -38t-1 -36.5z" unicode="þ"/>
<glyph glyph-name="OE" horiz-adv-x="833" unicode="Œ" d="M793 722v-80h-280v-232h260v-80h-260v-250h286v-80h-477q-132 0 -191 62t-59 207v168q0 153 55.5 219t167.5 66h498zM421 80v562h-132q-43 0 -68.5 -15.5t-40 -62.5t-14.5 -131v-160q0 -95 28 -144t103 -49h124z"/>
<glyph glyph-name="oe" horiz-adv-x="778" unicode="œ" d="M250 57q62 0 84 48.5t22 174.5q0 97 -27 132.5t-79 35.5t-79 -35.5t-27 -132.5q0 -126 22 -174.5t84 -48.5zM723 226h-284q0 -99 24.5 -134t77.5 -35q40 0 63 27.5t25 68.5h90q-1 -82 -47.5 -122.5t-128.5 -40.5q-123 0 -153 80q-23 -45 -57 -62.5t-83 -17.5q-45 0 -76 9 t-59.5 34.5t-42.5 78t-14 133.5q0 51 3 85.5t14.5 72.5t31.5 60.5t56 37t87 14.5q54 0 95 -19.5t49 -64.5h2q33 84 147 84q104 0 142 -57.5t38 -188.5v-43zM439 288h197q0 53 -7 86.5t-22 49t-30.5 20t-41.5 4.5q-46 0 -70.5 -32t-25.5 -128z"/>
<glyph glyph-name="Scaron" horiz-adv-x="556" unicode="Š" d="M344 939h80l-100 -141h-92l-100 141h80l66 -94zM61 215h91v-21q0 -68 35 -98.5t86 -30.5q129 0 129 117q0 44 -33.5 77t-81 57t-95 50t-81 70.5t-33.5 104.5q0 93 59 144.5t153 51.5q200 0 200 -195v-16h-96q1 64 -24 97.5t-87 33.5q-47 0 -79 -26t-32 -80 q0 -43 33.5 -76t81 -56.5t95 -50t81 -73t33.5 -109.5q0 -106 -62.5 -153.5t-161.5 -47.5h-4q-207 0 -207 210v20z"/>
<glyph glyph-name="scaron" horiz-adv-x="444" unicode="š" d="M288 722h80l-100 -141h-92l-100 141h80l66 -94zM397 144q0 -79 -48 -116.5t-128 -37.5q-174 0 -174 157v7h93q0 -97 84 -97q39 0 63 20t24 57q0 24 -26 44.5t-63 37t-74 36t-63 51.5t-26 74q0 23 7.5 44.5t25.5 44t54.5 36t86.5 13.5q69 0 114.5 -33t45.5 -98v-12h-91 q2 81 -79 81q-34 0 -56 -18t-22 -50q0 -24 26 -43.5t63 -36t74 -35.5t63 -51t26 -75z"/>
<glyph glyph-name="Ydieresis" d="M385 911v-104h-94v104h94zM209 911v-104h-94v104h94zM252 373l146 349h93l-197 -447v-275h-92v275l-194 447h103z" unicode="Ÿ"/>
<glyph glyph-name="circumflex" horiz-adv-x="278" unicode="ˆ" d="M205 581l-66 94l-66 -94h-80l100 141h92l100 -141h-80z"/>
<glyph glyph-name="tilde" horiz-adv-x="278" unicode="˜" d="M258 694h51q-5 -45 -31 -76q-28 -33 -73 -33q-19 0 -72 19q-47 19 -72 19q-17 0 -30.5 -14t-15.5 -31h-46q5 49 31 78.5t73 29.5q29 0 75 -18q44 -19 59 -19q47 0 51 45z"/>
<glyph glyph-name="endash" d="M0 243v56h500v-56h-500z" unicode="–"/>
<glyph glyph-name="emdash" horiz-adv-x="1000" unicode="—" d="M0 243v56h1000v-56h-1000z"/>
<glyph glyph-name="quoteleft" horiz-adv-x="222" unicode="‘" d="M186 722l-43 -199h-108l82 199h69z"/>
<glyph glyph-name="quotesinglbase" horiz-adv-x="222" unicode="‚" d="M35 -111l43 199h108l-82 -199h-69z"/>
<glyph glyph-name="quotedblleft" horiz-adv-x="444" unicode="“" d="M381 721l-43 -199h-108l82 199h69zM214 721l-43 -199h-108l82 199h69z"/>
<glyph glyph-name="quotedblright" horiz-adv-x="444" unicode="”" d="M230 523l43 199h108l-82 -199h-69zM63 523l43 199h108l-82 -199h-69z"/>
<glyph glyph-name="dagger" horiz-adv-x="444" unicode="†" d="M181 0v505h-142v67h142v150h82v-150h142v-67h-142v-505h-82z"/>
<glyph glyph-name="daggerdbl" horiz-adv-x="444" unicode="‡" d="M180 505h-140v67h140v150h82v-150h141v-67h-141v-288h141v-67h-141v-150h-82v150h-140v67h140v288z"/>
<glyph glyph-name="ellipsis" horiz-adv-x="1000" unicode="…" d="M880 104v-104h-94v104h94zM547 104v-104h-94v104h94zM214 104v-104h-94v104h94z"/>
<glyph glyph-name="perthousand" horiz-adv-x="889" unicode="‰" d="M95 -34l341 794h63l-343 -794h-61zM750 41q51 0 51 109v35v12q0 25 -2 40t-14 29.5t-35 14.5t-35 -14.5t-14 -29.5t-2 -40v-12v-35q0 -109 51 -109zM750 337q32 0 54.5 -10t34.5 -23.5t18 -39t7 -45t1 -52.5q0 -31 -1.5 -52t-8 -48t-18 -43t-34 -27.5t-53.5 -11.5 t-53.5 11.5t-34 27.5t-18 43t-8 48t-1.5 52q0 33 1 52.5t7 45t18 39t34.5 23.5t54.5 10zM459 41q51 0 51 109v35v12q0 25 -2 40t-14 29.5t-35 14.5t-35 -14.5t-14 -29.5t-2 -40v-12v-35q0 -109 51 -109zM459 337q32 0 54.5 -10t34.5 -23.5t18 -39t7 -45t1 -52.5 q0 -31 -1.5 -52t-8 -48t-18 -43t-34 -27.5t-53.5 -11.5t-53.5 11.5t-34 27.5t-18 43t-8 48t-1.5 52q0 33 1 52.5t7 45t18 39t34.5 23.5t54.5 10zM138 438q51 0 51 109v35v12q0 25 -2 40t-14 29.5t-35 14.5t-35 -14.5t-14 -29.5t-2 -40v-12v-35q0 -109 51 -109zM138 734 q32 0 54.5 -10t34.5 -23.5t18 -39t7 -45t1 -52.5q0 -31 -1.5 -52t-8 -48t-18 -43t-34 -27.5t-53.5 -11.5t-53.5 11.5t-34 27.5t-18 43t-8 48t-1.5 52q0 33 1 52.5t7 45t18 39t34.5 23.5t54.5 10z"/>
<glyph glyph-name="guilsinglleft" horiz-adv-x="222" unicode="‹" d="M114 77l-90 193l93 196h76l-79 -196l78 -193h-78z"/>
<glyph glyph-name="guilsinglright" horiz-adv-x="222" unicode="›" d="M108 77h-78l78 193l-79 196h76l93 -196z"/>
<glyph glyph-name="Euro" horiz-adv-x="444" unicode="€" d="M279 315l-12 -72h-105v-62q0 -55 17 -84t67 -29q36 0 55 18.5t24 42.5q7 40 7 96h94q0 -115 -25 -160q-24 -43 -62 -58.5t-93 -15.5q-99 0 -138.5 46t-39.5 148v58h-57l12 72h45v61h-57l12 72h45q0 38 0.5 57t3.5 51t9.5 48t19.5 37.5t32 31.5t47.5 17.5t65.5 7.5 q109 0 151 -65q29 -45 29 -146h-94v17q0 23 -1 36.5t-5.5 31t-13.5 27t-25.5 16t-40.5 6.5q-49 0 -66.5 -29.5t-17.5 -85.5v-58h137l-12 -72h-125v-61h117z"/>
<glyph glyph-name="trademark" horiz-adv-x="825" unicode="™" d="M-3 722h308v-56h-119v-377h-70v377h-119v56zM790 722v-433h-70v341h-2l-120 -341h-57l-114 341h-2v-341h-70v433h111l108 -322h2l105 322h109z"/>
<glyph glyph-name="minus" d="M43 222v62h414v-62h-414z" unicode="−"/>
</font>
</defs>
</svg>
